<svg width="32" height="31" viewBox="0 0 32 31" fill="none" xmlns="http://www.w3.org/2000/svg">
<path d="M29.3493 0.00161163C29.821 0.00161163 30.2206 0.165462 30.5483 0.493164C30.876 0.820865 31.0399 1.22055 31.0399 1.69223V28.5052C31.0399 28.9769 30.876 29.3766 30.5483 29.7043C30.2206 30.032 29.821 30.1958 29.3493 30.1958H21.723V18.5581H25.6151L26.1663 13.9585H21.723V11.0092C21.723 10.3011 21.8804 9.76389 22.1952 9.39751C22.51 9.03113 23.0864 8.8474 23.9245 8.84633H26.3226V4.75758C25.274 4.65229 24.1077 4.59964 22.8237 4.59964C21.0681 4.59964 19.6525 5.11751 18.577 6.15327C17.5015 7.18902 16.9643 8.65024 16.9654 10.5369V13.9569H13.0733V18.5565H16.9654V30.1942H2.53632C2.06464 30.1942 1.66496 30.0303 1.33726 29.7026C1.00955 29.3749 0.845703 28.9753 0.845703 28.5036V1.69062C0.845703 1.21894 1.00955 0.819254 1.33726 0.491552C1.66496 0.163851 2.06464 0 2.53632 0L29.3493 0.00161163Z" fill="#F5F5F5"/>
</svg>
