<?xml version="1.0" encoding="UTF-8"?>
<svg id="Layer_1" data-name="Layer 1" xmlns="http://www.w3.org/2000/svg" viewBox="0 0 50 50">
  <path d="M44.68,27.07h-11.63c0-.57,0-1.12,0-1.67-.02-1.02-.54-1.53-1.57-1.55-.66-.01-1.32,0-1.98,0-.9,0-1.3-.39-1.32-1.29-.02-1.22,0-2.44,0-3.66,0-.97-.1-1.07-1.11-1.08-.64,0-1.27,0-1.91-.02-.05,0-.09-.04-.2-.08.06-.2.11-.41.2-.61.81-1.83,1.7-3.63,2.42-5.5.43-1.12.54-2.36.85-3.53,1.75-6.49,8.49-9.18,13.78-7.48,5.71,1.84,9.45,7.9,6.91,14.4-.83,2.12-1.88,4.16-2.82,6.23-.83,1.83-1.52,3.7-1.62,5.82ZM42.52,12.77c.41-.75.82-1.41,1.09-2.11.07-.18-.3-.53-.46-.8-.25.17-.65.3-.71.52-.21.73-.64,1.2-1.37,1.22-.65.01-1.08-.41-1.35-1.05-.09-.22-.54-.3-.82-.44-.12.29-.39.62-.33.87.24,1.03.98,1.6,1.98,1.88.28.08.59.27.74.5,1.19,1.77,3.47,2.21,5.13.96,1.66-1.25,1.85-3.59.46-5.2-.2-.23-.35-.54-.41-.84-.41-2.13-1.78-3.43-3.89-3.68-.24-.03-.51-.2-.67-.39-2.18-2.58-5.82-2.06-7.22,1.01-.12.26-.46.53-.73.58-1.84.34-3.15,1.77-3.19,3.55-.04,1.81,1.15,3.27,3.01,3.67.42.09.62.27.77.68.33.89.99,1.48,1.95,1.62.6.09,1.21.07,1.82.1,1.04.04,1.53.51,1.56,1.56.02.81.01,1.63,0,2.44,0,.44.12.76.62.78.5.01.65-.31.65-.75,0-.94.03-1.88-.02-2.82-.07-1.41-1.23-2.5-2.65-2.54-.51-.01-1.02.01-1.53,0-.8-.04-1.36-.66-1.34-1.45.01-.76.4-1.1,1.41-1.44.25-.08.41-.46.61-.7-.26-.18-.51-.52-.77-.52-.95,0-1.73.46-2.16,1.31-.31.61-.69.55-1.17.35-1.04-.43-1.6-1.49-1.41-2.68.17-1.03,1-1.73,2.24-1.85.07.25.09.56.24.77.14.19.46.39.66.36.2-.03.39-.33.5-.55.07-.14,0-.35-.02-.52-.15-1.46.57-2.66,1.88-3.12,1.32-.47,2.63,0,3.41,1.26.28.45.57.65,1.16.63,2.12-.09,3.57,2.08,2.71,4.01-.2.45-.5.92.11,1.24.58.31.79-.22,1.04-.59.02-.03.09-.03.14-.04.57,1.09.25,2.25-.78,2.88-1.05.64-2.29.31-2.91-.64ZM41.31,8.83c0-1.14-.72-2.12-1.68-2.36-1.09-.28-2.29.18-2.72,1.15-.12.26.08.66.13.99.3-.09.71-.08.88-.28.38-.43.75-.82,1.35-.6.62.23.84.71.76,1.4-.02.21.32.62.52.64.22.02.51-.28.7-.5.1-.11.05-.34.05-.44Z"/>
  <path d="M25.13,40.63c-.39,0-.67,0-.95,0-2.57,0-2.42-.24-2.4,2.44,0,.79,0,1.58,0,2.36-.01.9-.34,1.23-1.25,1.26-.69.02-1.37,0-2.06,0-.91.02-1.42.46-1.5,1.38-.05.58,0,1.16,0,1.81H5.34c-.13-2.67-1.26-5.02-2.37-7.39-.69-1.47-1.4-2.93-2.01-4.43-3.05-7.5,2.28-13.82,7.86-14.9,5.44-1.05,11.46,1.87,12.79,8.06.66,3.1,2.07,5.85,3.23,8.72.07.18.15.37.28.67ZM12.64,27.03h-1.33c0-.55.08-1.07-.03-1.54-.07-.28-.45-.49-.7-.73-.19.26-.5.49-.56.77-.09.48-.03.99-.03,1.5h-1.37c0-.49-.01-.95,0-1.4.02-.46-.13-.84-.63-.86-.51-.02-.68.37-.69.82-.01.47,0,.95,0,1.41-2.35.31-2.58.55-3.05,3.07-.46,0-.94,0-1.42,0-.43,0-.84.15-.74.62.05.26.45.56.75.62.47.1.99.03,1.47.03v1.35c-.51,0-.96,0-1.42,0-.45,0-.83.16-.83.68,0,.52.39.66.84.66.47,0,.94,0,1.4,0v1.37c-.55,0-1.07-.07-1.55.03-.26.05-.47.4-.7.61.24.21.45.54.72.59.48.1,1,.03,1.49.03.41,2.47.65,2.71,3.05,3.1,0,.48-.08,1.01.03,1.48.07.28.45.49.69.73.2-.25.51-.48.57-.76.09-.48.03-.99.03-1.5h1.37c0,.5,0,.95,0,1.4-.01.46.13.84.65.85.51,0,.66-.4.67-.84.01-.47,0-.94,0-1.4h1.33c0,.5-.09.98.03,1.4.09.32.39.77.66.82.49.09.65-.36.64-.82-.01-.47,0-.94,0-1.41.07.06.14.12.21.19.7-.31,1.56-.46,2.05-.98.5-.53.63-1.41.97-2.25.33,0,.83.08,1.29-.03.3-.07.53-.4.8-.61-.27-.21-.51-.49-.81-.6-.29-.1-.65-.05-.98-.02-.44.03-.6-.15-.57-.58.02-.24,0-.49,0-.8.56,0,1.04.08,1.46-.03.33-.08.82-.37.86-.63.07-.5-.38-.7-.87-.69-.47,0-.94,0-1.46,0,.03-.53.05-.92.08-1.35.52,0,.95-.01,1.38,0,.49.02.92-.11.91-.66,0-.51-.42-.63-.88-.61-.45.02-.9,0-1.44,0,.1-2.09-.93-3.07-2.97-3.02,0-.5-.01-.93,0-1.36.02-.48-.1-.92-.65-.91-.56,0-.67.46-.67.92,0,.43,0,.85,0,1.33Z"/>
  <path d="M31.49,43.91c.3.24.68.42.86.72.14.23.04.62.04.93-.31,0-.74.11-.92-.05-.73-.63-1.42-1.31-2.04-2.05-.17-.2-.16-.78.01-.98.6-.72,1.3-1.35,1.97-2.01.32-.32.73-.41.97-.02.14.22.08.67-.06.91-.17.29-.52.48-.71.87h10.71c0-.29,0-.56,0-.83,0-2.79,0-5.59,0-8.38,0-.5-.02-1.07.65-1.05.6.01.62.53.62,1.02,0,3.2,0,6.4,0,9.6,0,.92-.14,1.05-1.06,1.06-3.35,0-6.71,0-10.06,0-.27,0-.55,0-.82,0-.05.08-.11.17-.16.25Z"/>
  <path d="M18.53,7.76H7.7c0,.3,0,.57,0,.83,0,2.77,0,5.54,0,8.31,0,.23.06.51-.04.67-.15.22-.41.47-.65.49-.17.02-.44-.27-.56-.49-.1-.18-.06-.44-.06-.67,0-3.1,0-6.2,0-9.3,0-1.06.13-1.19,1.18-1.19,3.35,0,6.71,0,10.06,0,.25,0,.49,0,.74,0,.06-.08.13-.17.19-.25-.29-.22-.68-.39-.85-.68-.15-.26-.05-.66-.06-1,.32.02.74-.08.93.09.71.61,1.35,1.31,2.01,1.97.32.32.37.66.04,1-.68.69-1.33,1.4-2.06,2.03-.19.17-.62.06-.94.08,0-.32-.08-.69.05-.95.16-.32.49-.56.87-.95Z"/>
  <path d="M5.69,33.31c0-1.27,0-2.54,0-3.81,0-.8.31-1.1,1.11-1.1,2.57,0,5.13,0,7.7,0,.76,0,1.12.35,1.12,1.13.02,2.56.02,5.13,0,7.69,0,.77-.36,1.1-1.14,1.11-2.57.01-5.13.01-7.7,0-.79,0-1.08-.32-1.09-1.13-.01-1.3,0-2.59,0-3.89ZM12.33,35.77c-.05-.24-.04-.35-.09-.43-.74-1.49-1.47-3-2.26-4.47-.29-.53-.88-.45-1.18.15-.72,1.39-1.43,2.79-2.08,4.21-.11.24.13.64.22.97.31-.13.65-.23.91-.42.18-.14.25-.59.39-.6.75-.07,1.52-.1,2.27-.02.21.02.34.5.57.71.2.18.49.36.74.35.19,0,.37-.31.5-.44ZM14.73,33.28c0-.66-.01-1.32,0-1.98.01-.49-.21-.87-.67-.81-.25.03-.63.49-.64.77-.07,1.39-.06,2.79,0,4.18.01.26.43.51.66.76.21-.26.57-.5.61-.79.09-.7.03-1.42.03-2.13Z"/>
  <path d="M8.92,33.71c.18-.37.32-.66.52-1.06.21.4.36.69.55,1.06h-1.07Z"/>
</svg>