<svg width="32" height="31" viewBox="0 0 32 31" fill="none" xmlns="http://www.w3.org/2000/svg">
<g clip-path="url(#clip0_669_135)">
<path d="M16.0553 3.1221C20.0244 3.1221 20.4903 3.13979 22.0591 3.21056C23.5099 3.27544 24.2943 3.51724 24.8192 3.72366C25.5151 3.99495 26.0105 4.31342 26.5295 4.83241C27.0485 5.3514 27.3728 5.8468 27.6382 6.54272C27.8388 7.06761 28.0865 7.85199 28.1513 9.3028C28.2221 10.8716 28.2398 11.3375 28.2398 15.3066C28.2398 19.2757 28.2221 19.7416 28.1513 21.3104C28.0865 22.7612 27.8447 23.5456 27.6382 24.0704C27.3669 24.7664 27.0485 25.2618 26.5295 25.7807C26.0105 26.2997 25.5151 26.6241 24.8192 26.8895C24.2943 27.09 23.5099 27.3377 22.0591 27.4026C20.4903 27.4734 20.0244 27.4911 16.0553 27.4911C12.0862 27.4911 11.6203 27.4734 10.0515 27.4026C8.60073 27.3377 7.81635 27.0959 7.29146 26.8895C6.59554 26.6182 6.10014 26.2997 5.58115 25.7807C5.06216 25.2618 4.73779 24.7664 4.4724 24.0704C4.27188 23.5456 4.02418 22.7612 3.9593 21.3104C3.88853 19.7416 3.87084 19.2757 3.87084 15.3066C3.87084 11.3375 3.88853 10.8716 3.9593 9.3028C4.02418 7.85199 4.26598 7.06761 4.4724 6.54272C4.74369 5.8468 5.06216 5.3514 5.58115 4.83241C6.10014 4.31342 6.59554 3.98905 7.29146 3.72366C7.81635 3.52314 8.60073 3.27544 10.0515 3.21056C11.6203 3.13389 12.0862 3.1221 16.0553 3.1221ZM16.0553 0.44458C12.0213 0.44458 11.5142 0.462273 9.92769 0.533044C8.34713 0.603816 7.26787 0.857413 6.32425 1.22307C5.34524 1.60051 4.51958 2.11361 3.69391 2.93927C2.86824 3.76494 2.36105 4.5965 1.9777 5.56961C1.61205 6.51323 1.35845 7.59249 1.28768 9.17895C1.21691 10.7595 1.19922 11.2667 1.19922 15.3007C1.19922 19.3347 1.21691 19.8418 1.28768 21.4283C1.35845 23.0089 1.61205 24.0881 1.9777 25.0376C2.35515 26.0167 2.86824 26.8423 3.69391 27.668C4.51958 28.4937 5.35114 29.0008 6.32425 29.3842C7.26787 29.7498 8.34713 30.0034 9.93359 30.0742C11.5201 30.145 12.0213 30.1627 16.0612 30.1627C20.1011 30.1627 20.6024 30.145 22.1888 30.0742C23.7694 30.0034 24.8487 29.7498 25.7982 29.3842C26.7772 29.0067 27.6029 28.4937 28.4285 27.668C29.2542 26.8423 29.7614 26.0108 30.1447 25.0376C30.5104 24.094 30.764 23.0148 30.8347 21.4283C30.9055 19.8418 30.9232 19.3405 30.9232 15.3007C30.9232 11.2608 30.9055 10.7595 30.8347 9.17305C30.764 7.59249 30.5104 6.51323 30.1447 5.56371C29.7673 4.58471 29.2542 3.75904 28.4285 2.93337C27.6029 2.10771 26.7713 1.60051 25.7982 1.21717C24.8546 0.851516 23.7753 0.597918 22.1888 0.527147C20.5965 0.462273 20.0893 0.44458 16.0553 0.44458Z" fill="white"/>
<path d="M16.0553 7.66919C11.8444 7.66919 8.42383 11.0839 8.42383 15.3007C8.42383 19.5175 11.8444 22.9322 16.0553 22.9322C20.2662 22.9322 23.6869 19.5116 23.6869 15.3007C23.6869 11.0898 20.2662 7.66919 16.0553 7.66919ZM16.0553 20.2547C13.3189 20.2547 11.1013 18.0372 11.1013 15.3007C11.1013 12.5642 13.3189 10.3467 16.0553 10.3467C18.7918 10.3467 21.0093 12.5642 21.0093 15.3007C21.0093 18.0372 18.7918 20.2547 16.0553 20.2547Z" fill="white"/>
<path d="M23.9881 9.14932C24.9718 9.14932 25.7692 8.3519 25.7692 7.36824C25.7692 6.38458 24.9718 5.58716 23.9881 5.58716C23.0044 5.58716 22.207 6.38458 22.207 7.36824C22.207 8.3519 23.0044 9.14932 23.9881 9.14932Z" fill="white"/>
</g>
<defs>
<clipPath id="clip0_669_135">
<rect width="30.1958" height="30.1958" fill="white" transform="translate(0.957031 0.202881)"/>
</clipPath>
</defs>
</svg>
