<svg width="38" height="38" viewBox="0 0 38 38" fill="none" xmlns="http://www.w3.org/2000/svg">
<g clip-path="url(#clip0_669_388)">
<path d="M20.9513 21.6529C21.1982 21.438 21.3077 21.3506 21.409 21.2535C22.5338 20.1996 24.1969 20.6642 24.5866 22.1549C24.6685 22.4697 24.7253 22.6805 25.061 22.3657C26.3911 21.144 27.9432 21.6155 28.4037 23.3781C28.4339 23.4358 28.4687 23.491 28.5077 23.5431C28.6481 23.4529 28.7824 23.3538 28.9099 23.2463C29.5244 22.6542 30.2359 22.5363 31.0071 22.8428C31.7783 23.1492 32.1472 23.7691 32.1542 24.5762C32.1708 26.4636 32.2291 28.3538 32.1417 30.2356C32.0723 32.0146 31.4157 33.7206 30.2746 35.0873C29.1334 36.454 27.5719 37.4046 25.8336 37.7907C22.0345 38.6324 18.4685 36.8532 16.6793 33.3863C16.2484 32.5761 15.7074 31.8294 15.0717 31.1675C13.5613 29.5686 11.9731 28.0431 10.4197 26.4858C9.69149 25.7564 9.79136 25.0422 10.6971 24.5097C11.8747 23.8163 13.1937 23.9966 14.2964 25.038C14.8623 25.5691 15.3824 26.1474 15.9608 26.6702C16.1841 26.8741 16.5156 27.1306 16.7666 27.0932C17.2063 27.0239 17.1162 26.5565 17.1176 26.214C17.1176 23.5144 17.1176 20.8139 17.1176 18.1125C17.1176 15.7634 17.1078 13.4142 17.1176 11.0664C17.1259 9.76562 17.9373 8.98627 19.1523 9.04728C19.5699 9.07259 19.9661 9.241 20.274 9.52414C20.582 9.80729 20.7829 10.1879 20.8431 10.6018C20.875 10.8956 20.8875 11.1912 20.8805 11.4866C20.8805 14.5939 20.8805 17.7011 20.8805 20.8084C20.8875 21.0344 20.9221 21.2633 20.9513 21.6529Z" fill="black"/>
<path d="M16.2829 16.5038C15.8113 16.7132 15.4118 16.8491 15.0595 17.0585C14.7461 17.2485 14.4922 17.5314 14.2037 17.7616C13.6781 18.1776 13.1968 18.2026 12.7002 17.7616C12.2016 17.3227 11.7301 16.8541 11.2882 16.3582C10.8638 15.8839 10.8721 15.3999 11.2605 14.9021C11.5379 14.5512 11.8306 14.2212 12.101 13.8703C12.6739 13.1215 12.3202 12.2977 11.3742 12.1854C10.9151 12.1313 10.4505 12.1272 9.98722 12.0717C9.74445 12.0526 9.51686 11.9461 9.34672 11.7719C9.17658 11.5977 9.07544 11.3677 9.06209 11.1245C9.03019 10.4048 9.02741 9.68232 9.06209 8.96398C9.08567 8.40927 9.51702 8.03901 10.1426 7.96829C10.5822 7.91836 11.0275 7.90865 11.4658 7.84209C12.298 7.71728 12.6239 6.95456 12.1329 6.2806C11.8555 5.90756 11.5421 5.57058 11.2508 5.21141C10.8347 4.69553 10.8083 4.19768 11.2383 3.70954C11.6633 3.22315 12.1182 2.7637 12.6003 2.33388C13.169 1.83048 13.5713 1.84713 14.1788 2.32556C14.513 2.58904 14.8279 2.88026 15.1677 3.12988C15.8779 3.66101 16.6865 3.31848 16.7988 2.4365C16.8599 1.96084 16.871 1.47825 16.9375 1.00259C17.0194 0.438176 17.3647 0.0942607 17.9279 0.063752C18.6094 0.0283913 19.2922 0.0283913 19.9737 0.063752C20.5285 0.092874 20.8988 0.411828 20.9835 0.985947C21.0556 1.47825 21.1 1.97471 21.1624 2.46978C21.2609 3.2533 22.0251 3.6194 22.6784 3.16316C23.0723 2.88581 23.4177 2.54883 23.788 2.24929C24.3151 1.83326 24.7908 1.80136 25.2874 2.23819C25.786 2.67753 26.2575 3.14665 26.6993 3.64298C27.1362 4.13251 27.1154 4.62342 26.6993 5.14345C26.4219 5.49153 26.1251 5.82158 25.8588 6.1752C25.3512 6.8464 25.623 7.60357 26.4497 7.76859C26.9365 7.86705 27.44 7.87953 27.9352 7.935C28.5455 8.00295 28.9061 8.36767 28.931 8.98755C28.956 9.60743 28.956 10.2079 28.931 10.8167C28.9075 11.5752 28.5371 11.9649 27.7854 12.0481C27.3818 12.0925 26.9726 12.1022 26.5703 12.1521C25.6868 12.2617 25.3456 13.0494 25.8768 13.7663C26.1293 14.1075 26.4206 14.4181 26.691 14.7468C27.1584 15.3126 27.1848 15.7979 26.7104 16.3346C26.2831 16.8194 25.8264 17.2774 25.3428 17.7061C24.8491 18.1429 24.3719 18.1221 23.8421 17.7061C23.5508 17.4787 23.2609 17.2485 22.9835 17.0044C22.616 16.6813 22.2262 16.4774 21.7241 16.6924C21.5854 15.999 21.6451 15.5039 22.3524 15.0727C24.4607 13.7885 25.5259 11.0788 24.9767 8.71713C24.3803 6.1544 22.3413 4.26147 19.8308 3.93697C16.9334 3.56255 14.1829 5.20724 13.237 7.87814C12.2439 10.6836 13.262 13.6803 15.8057 15.1989C16.5214 15.6329 16.2565 16.1585 16.2829 16.5038Z" fill="black"/>
<path d="M10.9747 2.70692C10.4199 1.54343 9.38799 1.61693 8.35605 1.65576C7.50581 1.68626 6.65419 1.66685 5.80395 1.65576C5.52655 1.65576 5.34069 1.69042 5.17563 1.96916C4.87326 2.48226 4.28379 2.65561 3.72066 2.48226C3.47507 2.39575 3.26094 2.23784 3.10574 2.02881C2.95054 1.81977 2.86135 1.56914 2.84961 1.30907C2.85086 1.03971 2.93407 0.777102 3.08817 0.556152C3.24227 0.335201 3.45997 0.166365 3.71234 0.0720765C3.96576 -0.024522 4.24458 -0.0316765 4.50262 0.0518008C4.76067 0.135278 4.98245 0.304378 5.13125 0.531094C5.31572 0.808446 5.51268 0.865303 5.80672 0.862529C7.04671 0.851435 8.2867 0.88749 9.52392 0.844501C10.1092 0.825086 10.5559 0.967922 10.9317 1.42278C11.1287 1.65992 11.4075 1.83049 11.7196 2.08981L10.9747 2.70692Z" fill="black"/>
<path d="M26.9964 2.76664L26.332 2.0996C26.7357 1.72795 27.0824 1.36601 27.4749 1.06508C27.669 0.934125 27.8982 0.864991 28.1324 0.866774C29.4819 0.848747 30.8315 0.854294 32.1825 0.866774C32.4682 0.866774 32.6776 0.844586 32.8649 0.550593C33.0101 0.321235 33.2299 0.148876 33.4873 0.0625018C33.7447 -0.0238722 34.024 -0.0189915 34.2782 0.0763216C34.532 0.166532 34.7521 0.332185 34.9091 0.551059C35.066 0.769932 35.1522 1.03156 35.1562 1.30083C35.1471 1.56087 35.0605 1.81225 34.9075 2.02275C34.7545 2.23325 34.5422 2.39329 34.2976 2.48235C33.7123 2.67234 33.188 2.4671 32.7886 1.95538C32.6597 1.79879 32.4743 1.69917 32.2726 1.67803C30.9605 1.65584 29.6475 1.65584 28.3335 1.67803C28.104 1.70134 27.8883 1.79869 27.719 1.95538C27.461 2.20998 27.2196 2.48096 26.9964 2.76664Z" fill="black"/>
<path d="M11.0441 17.2845L11.6447 17.9544C11.2702 18.301 10.9234 18.6616 10.5351 18.9625C10.3371 19.0935 10.1039 19.1612 9.86651 19.1567C8.51695 19.1733 7.16739 19.1692 5.81921 19.1567C5.52932 19.1567 5.32543 19.1913 5.14096 19.4826C4.98783 19.7172 4.75723 19.8906 4.48933 19.9727C4.22143 20.0548 3.93321 20.0404 3.67488 19.9319C3.43399 19.8349 3.22715 19.6689 3.08032 19.4547C2.93349 19.2405 2.85322 18.9878 2.84961 18.7282C2.85703 18.4683 2.94306 18.2169 3.09633 18.0069C3.24961 17.797 3.46293 17.6384 3.70817 17.5522C4.26298 17.3705 4.81778 17.5758 5.19228 18.0251C5.34422 18.2053 5.55882 18.3212 5.79286 18.3496C6.91911 18.3815 8.04814 18.3288 9.17301 18.3787C9.77913 18.4064 10.2507 18.2691 10.6141 17.7824C10.7237 17.6312 10.8555 17.5023 11.0441 17.2845Z" fill="black"/>
<path d="M26.3398 17.9087L26.8946 17.3859C26.9626 17.4164 27.0333 17.4233 27.0555 17.4607C27.6298 18.3164 28.4564 18.4537 29.4135 18.3843C30.3511 18.3178 31.2984 18.3843 32.2402 18.3566C32.4572 18.329 32.6555 18.2199 32.795 18.0515C33.1723 17.5883 33.716 17.3775 34.2666 17.5509C34.5136 17.6328 34.73 17.7875 34.8875 17.9947C35.0449 18.2018 35.136 18.4517 35.1488 18.7116C35.1507 18.9809 35.0696 19.2443 34.9164 19.4659C34.7633 19.6875 34.5456 19.8565 34.293 19.95C34.0416 20.0459 33.7652 20.0538 33.5088 19.9725C33.2524 19.8911 33.0311 19.7253 32.881 19.5021C32.684 19.1928 32.4649 19.1595 32.1542 19.1623C30.953 19.172 29.7505 19.1318 28.548 19.1803C27.8988 19.2067 27.4051 19.0417 27.0042 18.5272C26.798 18.3052 26.576 18.0985 26.3398 17.9087Z" fill="black"/>
<path d="M8.18148 9.60327V10.402H7.57814C6.04549 10.402 4.51284 10.402 2.98157 10.3951C2.6903 10.3951 2.48641 10.4312 2.29639 10.7127C2.20085 10.8666 2.07183 10.997 1.91894 11.0941C1.76605 11.1913 1.59321 11.2528 1.41328 11.274C1.23336 11.2952 1.05098 11.2755 0.879686 11.2165C0.708397 11.1575 0.552611 11.0607 0.423921 10.9332C0.292228 10.8169 0.186567 10.6741 0.113857 10.5142C0.0411475 10.3543 0.00302268 10.1808 0.0019753 10.0051C0.000927925 9.82948 0.0369897 9.65557 0.107788 9.49479C0.178585 9.33402 0.282525 9.18999 0.412822 9.07215C0.541084 8.94449 0.696139 8.84695 0.86675 8.78658C1.03736 8.72622 1.21926 8.70454 1.39928 8.72313C1.5793 8.74171 1.75294 8.80009 1.90762 8.89403C2.0623 8.98797 2.19414 9.11513 2.29361 9.26629C2.49889 9.56167 2.70972 9.60882 3.02874 9.60743C4.72367 9.59773 6.41998 9.60327 8.18148 9.60327Z" fill="black"/>
<path d="M29.8301 10.4021V9.6103H30.6179C32.0757 9.6103 33.5306 9.59782 34.9925 9.6103C35.135 9.62635 35.2791 9.60179 35.4082 9.53947C35.5373 9.47714 35.6461 9.37958 35.7221 9.25806C35.8232 9.1092 35.9559 8.98451 36.1107 8.89287C36.2656 8.80124 36.4388 8.74493 36.6179 8.72797C36.7971 8.71102 36.9778 8.73383 37.1471 8.79478C37.3164 8.85573 37.4701 8.95331 37.5974 9.08055C37.7267 9.19977 37.8293 9.34496 37.8986 9.50662C37.9679 9.66828 38.0022 9.84275 37.9993 10.0186C37.9965 10.1944 37.9564 10.3677 37.8819 10.527C37.8074 10.6863 37.7 10.8281 37.5668 10.943C36.9732 11.4658 36.1965 11.359 35.6722 10.7197C35.5146 10.5428 35.2952 10.4331 35.0591 10.4132C33.5098 10.3883 31.9578 10.4021 30.4071 10.4021H29.8301Z" fill="black"/>
<path d="M15.9596 7.01429C15.8209 7.87963 15.6905 8.70891 15.5504 9.58812H13.7168C13.7432 8.51338 14.1454 7.60783 14.7668 6.78964C14.8209 6.71753 15.022 6.71059 15.1385 6.73971C15.4048 6.8035 15.6586 6.9089 15.9596 7.01429Z" fill="black"/>
<path d="M24.3984 9.57145C24.1446 9.60334 24.0392 9.62691 23.9324 9.6283C23.4386 9.6283 22.9448 9.6283 22.4566 9.6283C22.3179 8.738 22.1792 7.89347 22.0488 7.06141C22.0821 7.02674 22.1015 6.98652 22.1307 6.97682C23.2597 6.59407 23.2916 6.58159 23.7854 7.6702C24.0503 8.26096 24.1876 8.9058 24.3984 9.57145Z" fill="black"/>
<path d="M13.7394 10.4326H15.5426C15.6813 11.2785 15.8075 12.1231 15.9462 13.0078L14.8879 13.3739C14.1833 12.6029 13.7117 11.4172 13.7394 10.4326Z" fill="black"/>
<path d="M23.1082 13.378L22.043 13.0092C22.1817 12.1438 22.312 11.3131 22.4508 10.4423H24.2178C24.3537 11.2521 23.8808 12.5196 23.1082 13.378Z" fill="black"/>
<path d="M19.4426 7.44276L21.2666 7.23059C21.4053 8.01827 21.5273 8.79902 21.6577 9.57976L21.4982 9.66158C21.3928 9.56728 21.2915 9.46466 21.1806 9.38423C20.7645 9.05834 20.3969 8.61042 19.9323 8.44678C19.3483 8.23461 19.322 7.9309 19.4426 7.44276Z" fill="black"/>
<path d="M16.7222 7.23059L18.578 7.45247V8.24431C18.1536 8.33447 17.754 8.51637 17.4073 8.77725C17.0606 9.03812 16.7752 9.37167 16.571 9.75449L16.3574 9.58808C16.4781 8.80872 16.5974 8.03214 16.7222 7.23059Z" fill="black"/>
<path d="M18.5753 6.65229L17.0898 6.48033C17.4089 5.71761 17.8139 5.14488 18.5753 4.776V6.65229Z" fill="black"/>
<path d="M20.9238 6.48729L19.4258 6.64122V4.78296C20.1859 5.12965 20.5784 5.71486 20.9238 6.48729Z" fill="black"/>
<path d="M16.2736 6.28752L15.4316 6.00047L16.7327 5.15454L16.82 5.25023L16.2736 6.28752Z" fill="black"/>
<path d="M22.5956 5.99636L21.7384 6.28203L21.1836 5.27109L21.2571 5.16431L22.5956 5.99636Z" fill="black"/>
<path d="M16.266 14.6247L15.4727 14.0256L16.266 13.7483V14.6247Z" fill="black"/>
<path d="M21.7227 14.6206V13.7483L22.5424 14.0076L21.7227 14.6206Z" fill="black"/>
</g>
<defs>
<clipPath id="clip0_669_388">
<rect width="38" height="38" fill="white"/>
</clipPath>
</defs>
</svg>
