<svg width="32" height="31" viewBox="0 0 32 31" fill="none" xmlns="http://www.w3.org/2000/svg">
<g clip-path="url(#clip0_669_133)">
<path d="M15.88 1.82573C17.7955 1.82573 19.6248 2.20016 21.3681 2.94901C23.1114 3.69787 24.6152 4.7044 25.8794 5.96859C27.1436 7.23279 28.1501 8.73654 28.899 10.4798C29.6478 12.2232 30.0223 14.0525 30.0223 15.9679C30.0223 18.5215 29.3902 20.8848 28.126 23.0579C26.8618 25.231 25.1431 26.9496 22.97 28.2138C20.7969 29.478 18.4336 30.1101 15.88 30.1101C14.481 30.1101 13.1428 29.9259 11.8655 29.5576C12.5771 28.4031 13.0557 27.384 13.3013 26.5002L14.2963 22.6337C14.5419 23.0997 14.9963 23.5108 15.6596 23.8672C16.3229 24.2235 17.0225 24.4016 17.7582 24.4016C19.2318 24.4016 20.5513 23.9779 21.7169 23.1304C22.8825 22.2829 23.7848 21.1229 24.4239 19.6503C25.0631 18.1778 25.3822 16.5205 25.3812 14.6786C25.3812 12.4934 24.5402 10.5966 22.8583 8.98817C21.1764 7.37974 19.034 6.57553 16.4311 6.57553C14.8348 6.57553 13.3738 6.84578 12.0482 7.38629C10.7226 7.92679 9.65467 8.63287 8.84442 9.50452C8.03417 10.3762 7.41415 11.3213 6.98436 12.3399C6.55457 13.3585 6.33968 14.3837 6.33968 15.4154C6.33968 16.6916 6.57923 17.8089 7.05834 18.7671C7.53745 19.7253 8.2556 20.4007 9.21281 20.7932C9.38493 20.8667 9.53238 20.8727 9.65518 20.8113C9.77797 20.7499 9.86403 20.6332 9.91335 20.4611C10.0855 19.8471 10.1836 19.4666 10.2078 19.3197C10.3064 19.0499 10.245 18.7922 10.0236 18.5467C9.38543 17.835 9.06636 16.9141 9.06636 15.7837C9.06636 13.9176 9.71104 12.3158 11.0004 10.9781C12.2898 9.6404 13.9777 8.97157 16.0642 8.97157C17.9062 8.97157 19.3425 9.47483 20.3732 10.4814C21.4039 11.4879 21.9197 12.8014 21.9207 14.4219C21.9207 15.7727 21.7365 17.0187 21.3681 18.1601C20.9997 19.3015 20.4718 20.216 19.7844 20.9034C19.0969 21.5909 18.3113 21.9346 17.4276 21.9346C16.6908 21.9346 16.0894 21.6644 15.6234 21.1239C15.1574 20.5834 15.0099 19.9447 15.181 19.2079C15.2796 18.8637 15.4085 18.4218 15.5675 17.8823C15.7265 17.3428 15.8614 16.8824 15.9721 16.5009C16.0829 16.1194 16.187 15.7082 16.2847 15.2674C16.3823 14.8265 16.4316 14.4581 16.4326 14.1622C16.4326 13.5482 16.2731 13.045 15.954 12.6524C15.635 12.2599 15.1684 12.0636 14.5544 12.0636C13.7935 12.0636 13.1549 12.4134 12.6385 13.1129C12.1222 13.8125 11.8645 14.6901 11.8655 15.746C11.8655 16.1385 11.8962 16.519 11.9576 16.8874C12.019 17.2558 12.0864 17.526 12.1599 17.6982L12.2701 17.9563C11.2636 22.3267 10.6496 24.8923 10.4282 25.6532C10.2319 26.5863 10.1584 27.6789 10.2078 28.931C7.67836 27.8017 5.6341 26.0704 4.07499 23.7373C2.51588 21.4042 1.73633 18.8139 1.73633 15.9664C1.73633 12.0621 3.11728 8.72899 5.87919 5.96708C8.6411 3.20517 11.9742 1.82422 15.8785 1.82422L15.88 1.82573Z" fill="white"/>
</g>
<defs>
<clipPath id="clip0_669_133">
<rect width="30.1958" height="30.1958" fill="white" transform="translate(0.845703 0.601318)"/>
</clipPath>
</defs>
</svg>
