<svg width="109" height="84" viewBox="0 0 109 84" fill="none" xmlns="http://www.w3.org/2000/svg">
<path d="M67.6982 76.9074L67.6981 76.9075L67.7069 76.9149C72.9094 81.2923 78.5551 83.5 84.6323 83.5C92.1277 83.5 98.0162 81.0959 102.228 76.2441L102.228 76.2442L102.235 76.2361C106.409 71.2193 108.5 65.4599 108.5 58.9772C108.5 54.1921 107.565 50.1951 105.662 47.0168C103.776 43.8689 101.26 41.3474 98.1178 39.4576C95.2037 37.5822 91.9805 36.2286 88.4516 35.3952C86.4419 34.7904 84.7465 34.0896 83.3588 33.2974C82.3491 32.6139 81.7501 31.1931 81.7501 28.7947C81.7501 25.6536 82.9188 22.9061 85.2864 20.5314C87.9042 18.1126 90.9258 16.1958 94.3545 14.7816C97.8201 13.3522 100.754 12.4429 103.163 12.0407L103.638 11.9614L103.576 11.4837L102.346 1.93611L102.283 1.44621L101.793 1.50336C92.8946 2.53975 85.3201 5.65232 79.0889 10.8524C72.8801 15.8286 68.1181 21.9472 64.8067 29.2031C61.4953 36.4588 59.8421 44.3324 59.8421 52.8175C59.8421 64.1631 62.4128 72.2485 67.6982 76.9074ZM43.0049 1.93808L42.942 1.43458L42.4395 1.50481C33.548 2.74757 25.9791 5.85834 19.7507 10.8494C13.5379 15.8279 8.77496 22.0517 5.46375 29.5134C2.15312 36.7684 0.5 44.6413 0.5 53.1255C0.5 64.4679 3.06967 72.4593 8.36507 76.9149C13.5676 81.2923 19.2132 83.5 25.2904 83.5C32.7859 83.5 38.6744 81.0959 42.8863 76.2441L42.8864 76.2442L42.8931 76.2361C47.0668 71.2193 49.1581 65.4599 49.1581 58.9772C49.1581 54.1978 48.2258 50.2978 46.3158 47.3182C44.4306 44.1733 41.9157 41.654 38.7758 39.7655C35.8618 37.8901 32.6383 36.5365 29.1094 35.7031C27.1111 35.1018 25.4236 34.4056 24.0404 33.6188C22.9862 32.719 22.4083 31.2541 22.4083 29.1027C22.4083 25.745 23.5844 23.0065 25.9359 20.8474L25.9372 20.8462C28.5567 18.4242 31.5807 16.5051 35.0126 15.0896L35.024 15.0849L35.0352 15.0797C38.4927 13.4499 41.4038 12.5522 43.7803 12.3538L44.2994 12.3105L44.2348 11.7936L43.0049 1.93808Z" stroke="#565656"/>
</svg>
