<?xml version="1.0" encoding="UTF-8"?>
<svg id="Layer_1" xmlns="http://www.w3.org/2000/svg" version="1.1" viewBox="0 0 1536 221.84">
  <!-- Generator: Adobe Illustrator 29.2.1, SVG Export Plug-In . SVG Version: 2.1.0 Build 116)  -->
  <defs>
    <style>
      .st0 {
        fill: #282828;
      }
    </style>
  </defs>
  <g>
    <path class="st0" d="M32.11,111.56l13.3,23.26h-12.23l-12.76-22.05h-9.74v22.05H0v-53.34h23.26c12.45,0,18.67,5.12,18.67,15.36,0,7.71-3.27,12.62-9.81,14.73ZM10.67,102.81h14.93c4.29-.07,6.5-2.03,6.61-5.87-.12-3.5-2.29-5.33-6.51-5.47h-15.04v11.34Z"/>
    <path class="st0" d="M91.84,134.82l21.34-53.34h10.67l21.3,53.31-11.34.04-3.2-8.18h-24.18l-3.2,8.18h-11.38ZM118.8,95.7l-8.11,20.27h16l-7.89-20.27Z"/>
    <path class="st0" d="M196.67,134.82v-53.31l39.19-.04v9.96h-28.52v11.38h21.37v9.92h-21.37v12.13h28.45v9.96h-39.12Z"/>
  </g>
  <g>
    <path class="st0" d="M817.63,108.72v-.2c11.46-1.39,17.03-9.46,17.03-20.72,0-15.34-10.46-25.2-32.97-25.2h-39.35v96.62h42.93c23.61,0,33.07-10.86,33.07-27.89,0-12.65-7.37-21.42-20.72-22.61ZM774.7,73.46h26.89c15.24,0,21.61,6.28,21.61,16.04s-6.17,15.54-19.82,15.54h-28.69v-31.58ZM804.78,148.37h-30.08v-34.27h29.48c14.14,0,22.11,6.37,22.11,16.04,0,11.16-4.88,18.23-21.52,18.23Z"/>
    <path class="st0" d="M876.4,148.07v-32.87h41.83v-9.16h-41.83v-32.27h51.7v-11.16h-64.05v96.62h65.34v-11.16h-52.99Z"/>
    <path class="st0" d="M1028.7,62.61l-33.37,84.77h-.5l-33.77-84.77h-13.65l39.84,96.62h14.54l39.94-96.62h-13.05Z"/>
    <path class="st0" d="M1175.22,148.07v-32.87h41.83v-9.16h-41.83v-32.27h51.7v-11.16h-64.05v96.62h65.34v-11.16h-52.99Z"/>
    <path class="st0" d="M1326.52,62.61v80.19h-.3l-52.39-80.19h-19.92v96.62h11.75v-87.66h.3l57.77,87.66h14.54V62.61h-11.75Z"/>
    <path class="st0" d="M1483.01,148.07v-32.87h41.84v-9.16h-41.84v-32.27h51.7v-11.16h-64.05v96.62h65.34v-11.16h-52.99Z"/>
    <path class="st0" d="M1127.51,113.6c-6.18-3.49-16.24-5.38-25.9-6.97-8.37-1.49-19.92-3.59-24.5-6.08-4.08-2.19-6.27-5.88-6.07-12.05.3-10.56,11.65-17.33,27.39-16.83,16.53.5,25.7,8.17,25.2,25h11.46c.6-22.11-9.86-34.76-36.66-35.56-23.01-.7-39.25,10.86-39.84,27.99-.2,9.16,3.58,15.74,8.96,19.22,5.28,3.49,15.74,6.08,25.7,7.57,8.37,1.49,19.32,2.99,24.5,5.28,4.98,2.29,7.47,5.68,7.27,11.85-.3,9.26-6.67,17.73-28.89,17.03-20.52-.6-27.29-10.66-26.89-24.6h-11.45c-.4,17.33,7.27,34.27,38.05,35.26,31.57.9,41.14-13.35,41.54-27.99.3-8.87-3.49-15.74-9.86-19.13Z"/>
    <path class="st0" d="M1433.3,113.6c-6.18-3.49-16.24-5.38-25.9-6.97-8.37-1.49-19.92-3.59-24.5-6.08-4.08-2.19-6.27-5.88-6.07-12.05.3-10.56,11.65-17.33,27.39-16.83,16.53.5,25.7,8.17,25.2,25h11.46c.6-22.11-9.86-34.76-36.66-35.56-23.01-.7-39.25,10.86-39.84,27.99-.2,9.16,3.58,15.74,8.96,19.22,5.28,3.49,15.74,6.08,25.7,7.57,8.37,1.49,19.32,2.99,24.5,5.28,4.98,2.29,7.47,5.68,7.27,11.85-.3,9.26-6.67,17.73-28.89,17.03-20.52-.6-27.29-10.66-26.89-24.6h-11.45c-.4,17.33,7.27,34.27,38.05,35.26,31.57.9,41.14-13.35,41.54-27.99.3-8.87-3.49-15.74-9.86-19.13Z"/>
  </g>
  <g>
    <path class="st0" d="M651.04,107.43c3.84,2.58,5.88,5.92,6.12,10.04-.39,8.28-4.82,12.66-13.26,13.15l-24.71-.03v-43.88h23.3c7.39.42,11.3,4.73,11.71,12.91-.14,3.9-1.19,6.51-3.16,7.82ZM627.99,104.3h12.3c3.53-.06,5.35-1.88,5.45-5.47-.1-2.15-1.89-3.28-5.36-3.4h-12.39v8.87ZM627.99,123.74h14.35c4.11-.06,6.23-2.18,6.32-6.35-.09-2.81-2.18-4.27-6.23-4.39h-14.44v10.74Z"/>
    <path class="st0" d="M663.33,86.68h10.3l10.19,14.34,10.42-14.34h10.07l-16.1,21.96v21.95h-8.78v-21.95l-16.1-21.96Z"/>
  </g>
  <g>
    <path class="st0" d="M490.14,107.92c9.46-6.36,15.69-17.15,15.69-29.37,0-18.49-14.27-33.69-32.37-35.22V0h-3c-9.37,0-17.43,5.33-21.58,13.07-4.15-7.73-12.21-13.07-21.59-13.07h-3v48.07c-6.36-9.45-17.15-15.69-29.37-15.69-18.49,0-33.69,14.27-35.22,32.37h-43.32v3c0,9.37,5.33,17.43,13.07,21.58-7.73,4.15-13.07,12.21-13.07,21.58v3h48.07c-9.46,6.36-15.69,17.15-15.69,29.37,0,18.49,14.27,33.7,32.37,35.23v43.31h3c9.37,0,17.43-5.33,21.58-13.06,4.15,7.73,12.21,13.06,21.58,13.06h3v-48.07c6.36,9.46,17.15,15.69,29.38,15.69,18.49,0,33.69-14.27,35.22-32.37h43.31v-3c0-9.37-5.33-17.43-13.06-21.58,7.73-4.15,13.06-12.21,13.06-21.59v-3h-48.07ZM488.9,113.92c-1.51,14.8-14.04,26.37-29.23,26.37s-27.72-11.58-29.23-26.37h58.46ZM365.69,107.92c1.51-14.8,14.04-26.37,29.23-26.37s27.72,11.58,29.23,26.37h-58.45ZM430.29,67.76v-18.44c14.8,1.51,26.38,14.04,26.38,29.23s-11.58,27.72-26.38,29.23v-40.01ZM387.13,113.92h20.48c-9.46,6.36-15.69,17.15-15.69,29.37,0,15.04,9.45,27.89,22.72,33-3.77,2.29-6.84,5.55-8.92,9.44-3.69-6.88-10.5-11.76-18.58-12.76v-59.06ZM424.29,154.09v18.44c-14.8-1.51-26.37-14.04-26.37-29.23s11.58-27.72,26.37-29.23v40.02ZM462.67,78.54c0-15.04-9.46-27.89-22.72-32.99,3.77-2.29,6.84-5.55,8.93-9.44,3.69,6.88,10.5,11.76,18.58,12.76v59.05h-20.48c9.46-6.36,15.69-17.15,15.69-29.37ZM499.83,78.54c0,15.19-11.58,27.72-26.37,29.23v-58.45c14.8,1.51,26.37,14.04,26.37,29.23ZM467.46,6.24v36.68c-8.82-1.43-15.58-9.11-15.58-18.34s6.76-16.91,15.58-18.34ZM430.29,6.24c8.82,1.43,15.59,9.11,15.59,18.34s-6.76,16.91-15.59,18.34V6.24ZM394.92,38.38c15.19,0,27.72,11.58,29.23,26.37h-58.45c1.51-14.8,14.04-26.37,29.23-26.37ZM322.62,70.76h36.68c-1.43,8.82-9.11,15.58-18.34,15.58s-16.91-6.76-18.34-15.58ZM322.62,107.92c1.43-8.82,9.11-15.58,18.34-15.58s16.91,6.76,18.34,15.58h-36.68ZM352.48,89.34c6.88-3.69,11.76-10.5,12.76-18.58h59.05v20.48c-6.36-9.45-17.15-15.69-29.37-15.69-15.04,0-27.89,9.45-32.99,22.72-2.29-3.77-5.55-6.83-9.44-8.92ZM354.75,143.29c0-15.19,11.58-27.72,26.37-29.23v58.46c-14.8-1.51-26.37-14.04-26.37-29.23ZM387.13,215.59v-36.68c8.82,1.43,15.58,9.11,15.58,18.34s-6.76,16.91-15.58,18.34ZM424.29,215.59c-8.82-1.43-15.58-9.11-15.58-18.34s6.76-16.91,15.58-18.34v36.68ZM459.67,183.46c-15.19,0-27.72-11.58-29.23-26.37h58.46c-1.51,14.8-14.04,26.37-29.23,26.37ZM531.97,151.09h-36.68c1.43-8.82,9.11-15.58,18.34-15.58s16.91,6.76,18.34,15.58ZM531.97,113.92c-1.44,8.82-9.12,15.59-18.34,15.59s-16.91-6.76-18.34-15.59h36.69ZM502.11,132.51c-6.88,3.69-11.76,10.51-12.76,18.58h-59.06v-20.49c6.36,9.46,17.15,15.69,29.38,15.69,15.04,0,27.89-9.45,32.99-22.72,2.29,3.77,5.55,6.84,9.44,8.93Z"/>
    <path class="st0" d="M397.86,25.63c7.06,0,12.81-5.75,12.81-12.81s-5.75-12.82-12.81-12.82-12.82,5.75-12.82,12.82,5.75,12.81,12.82,12.81ZM397.86,6c3.76,0,6.81,3.05,6.81,6.81s-3.05,6.81-6.81,6.81-6.81-3.05-6.81-6.81,3.05-6.81,6.81-6.81Z"/>
    <path class="st0" d="M525.4,94.3c7.06,0,12.81-5.75,12.81-12.81s-5.75-12.82-12.81-12.82-12.81,5.75-12.81,12.82,5.75,12.81,12.81,12.81ZM525.4,74.68c3.76,0,6.81,3.05,6.81,6.81s-3.05,6.81-6.81,6.81-6.81-3.05-6.81-6.81,3.05-6.81,6.81-6.81Z"/>
    <path class="st0" d="M456.72,196.22c-7.06,0-12.81,5.75-12.81,12.81s5.75,12.81,12.81,12.81,12.81-5.75,12.81-12.81-5.75-12.81-12.81-12.81ZM456.72,215.84c-3.76,0-6.81-3.05-6.81-6.81s3.05-6.81,6.81-6.81,6.81,3.05,6.81,6.81-3.05,6.81-6.81,6.81Z"/>
    <path class="st0" d="M329.19,127.54c-7.06,0-12.82,5.75-12.82,12.81s5.75,12.81,12.82,12.81,12.81-5.75,12.81-12.81-5.75-12.81-12.81-12.81ZM329.19,147.16c-3.76,0-6.81-3.05-6.81-6.81s3.05-6.81,6.81-6.81,6.81,3.05,6.81,6.81-3.05,6.81-6.81,6.81Z"/>
  </g>
</svg>