<svg width="31" height="34" viewBox="0 0 31 34" fill="none" xmlns="http://www.w3.org/2000/svg">
<g clip-path="url(#clip0_669_370)">
<path d="M0.000788913 15.8293V2.05656C0.000788913 1.01058 0.42308 0.671851 1.42488 0.559249C2.72466 0.412216 3.71 0.78166 4.47141 1.87976C5.07376 2.74706 5.95582 3.01879 6.99053 2.99087C8.68061 2.94527 10.3725 2.96854 12.0626 2.9825C12.8743 2.98902 13.547 2.71449 14.0854 2.09379C14.2161 1.94303 14.3943 1.82299 14.4885 1.65269C15.2581 0.262391 16.5396 0.53598 17.7452 0.624386C18.2662 0.664401 18.6118 1.07852 18.6995 1.60523C18.7215 1.75928 18.7309 1.9149 18.7278 2.07053C18.7278 11.2219 18.7278 20.3727 18.7278 29.5229C18.7278 30.3418 18.4536 30.7857 17.8403 30.9597C17.693 30.995 17.5418 31.0103 17.3906 31.0053C12.0282 31.0053 6.66574 31.0053 1.30331 31.0053C0.436791 31.0053 -0.00195312 30.5484 -0.00195312 29.6504C-0.00134376 25.0434 -0.00042982 20.4363 0.000788913 15.8293ZM11.1175 27.3984V26.8177C11.1175 23.9788 11.1175 21.1395 11.1175 18.3C11.1175 17.0837 10.7299 16.6966 9.52153 16.6966H8.46672C7.42196 16.6966 7.03166 17.0949 7.03075 18.1567C7.03075 21.0583 7.03075 23.9598 7.03075 26.8614V27.3965H5.86899C5.85985 27.2579 5.84797 27.1508 5.84797 27.0429C5.84797 25.4292 5.85254 23.8156 5.84797 22.2038C5.8434 21.3561 5.37083 20.8852 4.54087 20.8759C4.06831 20.8703 3.59575 20.8759 3.12318 20.8759C2.19816 20.8805 1.74571 21.3365 1.7448 22.2718C1.7448 23.8538 1.7448 25.4358 1.7448 27.0178C1.7448 27.2402 1.74023 27.4049 1.47881 27.5231C1.14518 27.6738 1.05377 28.1596 1.31154 28.382C1.50299 28.5223 1.73377 28.5961 1.96965 28.5923C6.8909 28.6035 11.8124 28.6063 16.7343 28.6007C16.8257 28.6007 16.9171 28.6007 17.0085 28.596C17.3348 28.5774 17.5195 28.3839 17.5396 28.0693C17.5615 27.7306 17.3824 27.511 17.046 27.4551C16.8394 27.4226 16.6283 27.4207 16.376 27.4021V26.8242C16.376 22.7584 16.355 18.6936 16.3915 14.6279C16.3998 13.688 15.8623 13.0236 14.8824 13.1231C14.5175 13.1562 14.1505 13.1562 13.7856 13.1231C12.6887 13.0301 12.2637 13.7429 12.2692 14.6688C12.2948 18.7188 12.2801 22.765 12.2801 26.8186V27.3984H11.1175ZM14.6302 8.45344C14.6302 8.85266 14.6302 9.11508 14.6302 9.37751C14.6347 9.85025 14.8367 10.122 15.1896 10.1331C15.5424 10.1443 15.7855 9.87165 15.7937 9.41101C15.8065 8.71307 15.8065 8.01513 15.7937 7.31718C15.7837 6.79792 15.6109 6.5997 15.1146 6.58667C14.1868 6.56248 13.2573 6.5662 12.3286 6.5755C11.963 6.5755 11.7153 6.76162 11.7061 7.16457C11.697 7.52192 11.9474 7.7313 12.3825 7.73967C12.7536 7.74619 13.1247 7.73967 13.6284 7.73967C13.3432 8.00396 13.1713 8.17054 12.9885 8.32967L2.10585 17.8971C1.71189 18.2432 1.63877 18.5354 1.87733 18.8453C2.1159 19.1552 2.402 19.1431 2.82429 18.8146C2.87273 18.7774 2.92118 18.7392 2.96688 18.6992L11.7116 11.0135L14.6302 8.45344Z" fill="black"/>
<path d="M26.3343 9.54511C25.717 9.54488 25.1059 9.42037 24.5361 9.17875C23.9662 8.93712 23.4489 8.58316 23.014 8.13722C22.579 7.69128 22.235 7.16216 22.0016 6.58033C21.7683 5.9985 21.6503 5.37544 21.6544 4.747C21.6544 4.12265 21.7754 3.50443 22.0105 2.92777C22.2455 2.3511 22.5901 1.82733 23.0243 1.38645C23.4585 0.945572 23.9739 0.596255 24.541 0.358514C25.108 0.120772 25.7156 -0.000719461 26.3289 0.000994446C28.9403 0.000994446 31.0024 2.11436 31.0006 4.78887C31.0019 5.41338 30.8821 6.03201 30.6482 6.60931C30.4142 7.18661 30.0706 7.71122 29.6371 8.15307C29.2036 8.59492 28.6888 8.94533 28.122 9.18421C27.5552 9.42308 26.9477 9.54573 26.3343 9.54511ZM26.4577 7.73326C26.6084 7.71679 26.7572 7.68562 26.902 7.6402C27.2881 7.5076 27.6162 7.24095 27.8288 6.88692C28.0413 6.53289 28.1248 6.11402 28.0646 5.70364C27.9586 4.88007 27.3169 4.27612 26.4559 4.18864C25.9788 4.14025 25.6927 3.92249 25.7768 3.5698C25.8298 3.34832 26.0574 3.05891 26.2566 3.01145C26.6378 2.91839 26.8535 3.17337 26.9184 3.58562C26.9458 3.76243 27.0784 3.99694 27.2237 4.06022C27.4001 4.13746 27.7648 4.14118 27.8288 4.03603C27.9751 3.80059 28.0866 3.45813 28.0336 3.1985C27.8837 2.45403 27.3937 1.97849 26.6515 1.82588C25.9587 1.6835 25.3874 1.9422 24.9587 2.49125C24.53 3.04029 24.4633 3.66844 24.7512 4.31986C25.0675 5.03827 25.6653 5.31559 26.3965 5.3891C26.7438 5.42446 26.9568 5.64781 26.8809 5.98003C26.8483 6.09634 26.7919 6.20435 26.7155 6.29702C26.6392 6.3897 26.5445 6.46495 26.4376 6.51791C26.1323 6.63702 25.8892 6.43881 25.7786 6.11403C25.7503 6.02656 25.7402 5.93256 25.7201 5.84137C25.6451 5.48588 25.4057 5.36584 25.0803 5.39841C24.7549 5.43098 24.6232 5.65339 24.6004 5.96979C24.5355 6.91154 25.3371 7.73233 26.4577 7.73326Z" fill="black"/>
<path d="M18.7218 32.0635C18.7334 32.3264 18.7319 32.5898 18.7172 32.8526C18.6542 33.544 18.1889 33.9796 17.5016 33.9805C12.0782 33.9842 6.65484 33.9842 1.23148 33.9805C0.465502 33.9805 0.0139608 33.5152 0.00390625 32.7363C0.00390625 32.4767 0.00390625 32.217 0.00390625 32.07C0.853059 32.1165 1.66291 32.1993 2.47184 32.2012C7.1341 32.213 11.7958 32.213 16.4568 32.2012C17.1917 32.1993 17.9257 32.1137 18.7218 32.0635Z" fill="black"/>
<path d="M4.92383 0.604858H13.717C13.5342 1.21998 12.8422 1.77275 12.2262 1.77368C10.5078 1.77368 8.78752 1.71505 7.07367 1.7988C6.09015 1.84626 5.46312 1.43494 4.92383 0.604858Z" fill="black"/>
<path d="M23.4489 18.0292C25.3258 18.6094 27.3293 18.6116 29.2074 18.0357C29.2275 18.0752 29.2425 18.1171 29.2522 18.1604C29.2467 19.1785 29.4698 19.118 28.3656 19.4251C27.0242 19.8 25.608 19.7974 24.2679 19.4176C23.3109 19.1477 23.3502 19.2231 23.4489 18.0292Z" fill="black"/>
<path d="M23.4454 20.4087C25.3225 21.0191 27.3397 21.0191 29.2168 20.4087C29.2283 20.434 29.238 20.4602 29.246 20.4869C29.3301 21.4956 29.246 21.6203 28.2899 21.8455C26.9792 22.1545 25.6574 22.1889 24.3595 21.8288C23.2562 21.5198 23.365 21.5636 23.4454 20.4087Z" fill="black"/>
<path d="M29.2162 32.3305C29.2326 32.3593 29.2445 32.3705 29.2454 32.3826C29.3423 33.4221 29.3368 33.4798 28.3524 33.731C26.8872 34.1226 25.3428 34.081 23.9001 33.611C23.3745 33.4388 23.3398 33.3178 23.443 32.3286C25.3224 32.9272 27.3364 32.9278 29.2162 32.3305Z" fill="black"/>
<path d="M29.2303 25.1752C29.3016 26.3747 29.4076 26.2919 28.3345 26.5887C27.0162 26.9405 25.6311 26.9405 24.3127 26.5887C23.3621 26.3477 23.331 26.2519 23.4444 25.1882C25.3767 25.7587 27.3035 25.7791 29.2303 25.1752Z" fill="black"/>
<path d="M23.4077 27.5445C25.372 28.1727 27.2979 28.1857 29.2649 27.5361C29.2513 27.722 29.2513 27.9086 29.2649 28.0945C29.3381 28.5374 29.1178 28.7375 28.7348 28.8585C27.5015 29.2538 26.1918 29.3353 24.9205 29.0958C24.6088 29.0381 24.3053 28.9357 23.9954 28.8706C23.5284 28.771 23.3218 28.5049 23.4077 28.0135C23.4195 27.8574 23.4195 27.7006 23.4077 27.5445Z" fill="black"/>
<path d="M29.2083 29.9426C29.2281 29.9897 29.2443 30.0382 29.2568 30.0878C29.318 31.0184 29.222 31.157 28.3217 31.3683C26.9972 31.6782 25.6618 31.7052 24.3483 31.359C23.2515 31.0686 23.363 31.1021 23.4507 29.9501C25.3629 30.5419 27.2769 30.5624 29.2083 29.9426Z" fill="black"/>
<path d="M29.2157 15.6301C29.2329 15.6745 29.2464 15.7202 29.2559 15.7669C29.3126 16.7599 29.2934 16.798 28.3282 17.0465C26.9658 17.393 25.5395 17.3828 24.182 17.0167C23.3978 16.8129 23.2872 16.5914 23.4627 15.6385C25.3337 16.2504 27.3464 16.2475 29.2157 15.6301Z" fill="black"/>
<path d="M23.4627 22.793C25.3222 23.4022 27.3224 23.4038 29.1828 22.7976C29.426 23.6854 29.287 23.9627 28.4662 24.1749C27.0802 24.5503 25.622 24.5503 24.236 24.1749C23.3238 23.9227 23.3302 23.9813 23.4627 22.793Z" fill="black"/>
<path d="M26.3285 13.6396C27.1201 13.7495 27.9034 13.8407 28.6785 13.9775C28.8568 14.0091 29.0085 14.1952 29.1721 14.3106C29.0213 14.4204 28.8851 14.5898 28.7151 14.6307C27.1451 15.0219 25.5056 15.0219 23.9355 14.6307C23.7683 14.5888 23.6321 14.4176 23.4785 14.3069C23.6302 14.1961 23.7701 14.0156 23.9355 13.9868C24.7308 13.8472 25.5287 13.7513 26.3285 13.6396Z" fill="black"/>
<path d="M13.4609 14.3375H15.1684V27.3825H13.4609V14.3375Z" fill="black"/>
<path d="M8.2168 17.8933H9.9151V27.376H8.2168V17.8933Z" fill="black"/>
<path d="M2.95508 22.0857H4.64241V27.3835H2.95508V22.0857Z" fill="black"/>
</g>
<defs>
<clipPath id="clip0_669_370">
<rect width="31" height="34" fill="white"/>
</clipPath>
</defs>
</svg>
