<svg width="32" height="31" viewBox="0 0 32 31" fill="none" xmlns="http://www.w3.org/2000/svg">
<path d="M29.7274 13.8982V8.75363C27.318 8.75363 25.4798 8.11071 24.2927 6.86073C23.0752 5.43424 22.3931 3.62784 22.364 1.75261V1.38145L17.4999 1.26318V22.1593C17.3331 23.0712 16.8905 23.9098 16.2319 24.5622C15.5732 25.2145 14.7303 25.649 13.8169 25.8071C12.9035 25.9652 11.9636 25.8392 11.1241 25.4461C10.2845 25.0531 9.58582 24.4119 9.12224 23.6092C8.65866 22.8064 8.45255 21.8808 8.53173 20.9572C8.61091 20.0336 8.97156 19.1565 9.56501 18.4444C10.1585 17.7323 10.9561 17.2194 11.8503 16.975C12.7445 16.7305 13.6921 16.7664 14.5653 17.0776V12.0959C14.0562 12.0126 13.5412 11.9703 13.0253 11.9695C11.1695 11.9696 9.35536 12.52 7.81236 13.5512C6.26936 14.5823 5.06677 16.0478 4.35667 17.7624C3.64656 19.477 3.46083 21.3637 3.82296 23.1838C4.18509 25.004 5.07881 26.6759 6.39112 27.9881C7.70343 29.3003 9.37539 30.1939 11.1956 30.5559C13.0157 30.9179 14.9024 30.7321 16.6169 30.0219C18.3315 29.3116 19.7969 28.1089 20.8279 26.5659C21.859 25.0228 22.4093 23.2087 22.4093 21.3528C22.4081 20.9684 22.3837 20.5844 22.3363 20.2029V11.9148C24.5482 13.2961 27.1211 13.9866 29.7274 13.8982Z" fill="white"/>
</svg>
